<?xml version="1.0" encoding="UTF-8" standalone="no"?>
<svg
   xmlns:dc="http://purl.org/dc/elements/1.1/"
   xmlns:cc="http://creativecommons.org/ns#"
   xmlns:rdf="http://www.w3.org/1999/02/22-rdf-syntax-ns#"
   xmlns:svg="http://www.w3.org/2000/svg"
   xmlns="http://www.w3.org/2000/svg"
   viewBox="0 0 1127.5375 127.8612"
   height="127.8612"
   width="1127.5375"
   xml:space="preserve"
   id="svg834"
   version="1.1"><metadata
     id="metadata840"><rdf:RDF><cc:Work
         rdf:about=""><dc:format>image/svg+xml</dc:format><dc:type
           rdf:resource="http://purl.org/dc/dcmitype/StillImage" /><dc:title></dc:title></cc:Work></rdf:RDF></metadata><defs
     id="defs838"><clipPath
       id="clipPath850"
       clipPathUnits="userSpaceOnUse"><path
         id="path848"
         d="M 0,1080 H 1920 V 0 H 0 Z" /></clipPath></defs><g
     transform="matrix(1.3333333,0,0,-1.3333333,-716.23118,770.61958)"
     id="g842"><g
       id="g844"><g
         clip-path="url(#clipPath850)"
         id="g846"><g
           transform="translate(967.9922,536.9883)"
           id="g852"><path
             id="path854"
             style="fill:#395db4;fill-opacity:1;fill-rule:nonzero;stroke:none"
             d="m 0,0 c 8.543,0.306 16.883,5.695 16.883,14.747 0,9.052 -6.306,14.238 -18.917,14.238 H -12.306 V -0.406 Z m -12.306,-30.715 h -4.272 v 63.566 h 15.053 c 15.865,0 22.781,-7.12 22.781,-18.002 C 21.256,5.289 13.832,-0.406 6,-2.542 l 18.104,-28.173 h -4.78 L 2.136,-3.356 -12.306,-4.271 Z" /></g><g
           transform="translate(1028.1816,534.0391)"
           id="g856"><path
             id="path858"
             style="fill:#395db4;fill-opacity:1;fill-rule:nonzero;stroke:none"
             d="m 0,0 c 0.204,1.118 0.306,2.339 0.306,3.458 0,7.322 -4.577,12.51 -12.002,12.51 -8.645,0 -14.747,-6.51 -16.171,-15.968 z m -28.172,-4.476 c 0,-11.796 6.509,-20.442 17.188,-20.442 5.289,0 9.662,1.73 13.018,3.865 l 0.916,-3.762 c -3.662,-2.34 -8.544,-3.967 -14.239,-3.967 -12.712,0 -21.154,9.967 -21.154,24.103 0,14.137 8.644,24.511 20.849,24.511 9.154,0 16.171,-6.103 16.171,-16.069 0,-2.238 -0.509,-5.288 -1.017,-7.323 l -31.732,-0.203 z" /></g><g
           transform="translate(1069.1685,530.9883)"
           id="g860"><path
             id="path862"
             style="fill:#395db4;fill-opacity:1;fill-rule:nonzero;stroke:none"
             d="m 0,0 c -18.205,-1.831 -24.51,-6.204 -24.51,-13.019 0,-5.796 4.983,-9.051 10.882,-9.051 5.797,0 10.679,3.661 13.628,7.22 z m 0.407,-18.409 c -2.847,-3.661 -8.543,-7.322 -14.544,-7.322 -8.238,0 -14.543,4.983 -14.543,12.306 0,8.645 7.119,15.052 28.68,16.476 v 4.271 c 0,7.119 -3.458,11.697 -11.391,11.697 -5.593,0 -12.001,-3.154 -15.662,-6.001 l -1.017,4.169 c 4.272,3.051 11.391,5.696 16.985,5.696 8.848,0 15.255,-4.272 15.255,-15.154 v -25.222 c 0,-2.848 0.712,-4.984 4.882,-4.882 l -0.305,-3.153 c -4.577,-0.203 -7.933,1.932 -8.238,7.119 z" /></g><g
           transform="translate(1087.4756,506.2734)"
           id="g864"><path
             id="path866"
             style="fill:#395db4;fill-opacity:1;fill-rule:nonzero;stroke:none"
             d="m 0,0 v 68.549 l 4.17,1.322 V 0 Z" /></g><g
           transform="translate(1106.2896,506.2734)"
           id="g868"><path
             id="path870"
             style="fill:#395db4;fill-opacity:1;fill-rule:nonzero;stroke:none"
             d="m 0,0 v 46.275 l 4.17,1.323 V 0 Z m 2.034,57.666 c -1.83,0 -2.95,1.628 -2.95,3.255 0,1.525 1.12,3.051 2.95,3.051 1.831,0 3.051,-1.526 3.051,-3.051 0,-1.627 -1.22,-3.255 -3.051,-3.255" /></g><g
           transform="translate(1136.5972,504.748)"
           id="g872"><path
             id="path874"
             style="fill:#395db4;fill-opacity:1;fill-rule:nonzero;stroke:none"
             d="m 0,0 c -8.645,0 -11.797,5.391 -11.493,14.849 l 0.814,28.986 -6.407,0.406 0.305,2.645 6.204,0.813 0.305,11.086 h 4.068 L -6.509,47.598 H 10.069 L 9.764,44.038 H -6.61 L -7.424,14.747 C -7.627,7.12 -5.39,3.764 0.102,3.764 c 3.356,0 6.61,1.219 9.458,2.746 L 10.374,2.95 C 7.221,1.119 3.356,0 0,0" /></g><g
           transform="translate(1173.9619,507.7998)"
           id="g876"><path
             id="path878"
             style="fill:#395db4;fill-opacity:1;fill-rule:nonzero;stroke:none"
             d="m 0,0 -4.373,-11.899 c -4.068,-10.883 -8.34,-13.832 -13.832,-13.832 -3.56,0 -5.695,0.711 -8.034,1.831 l 1.22,3.762 c 2.136,-1.119 4.17,-1.83 6.814,-1.83 3.559,0 6.712,2.033 10.272,11.492 l 3.458,9.357 -18.205,46.174 h 4.475 L -2.339,4.271 13.222,45.055 h 4.373 z" /></g><g
           transform="translate(1217.9419,506.2734)"
           id="g880"><path
             id="path882"
             style="fill:#395db4;fill-opacity:1;fill-rule:nonzero;stroke:none"
             d="M 0,0 V 63.565 H 4.271 V 3.967 H 36.41 V 0 Z" /></g><g
           transform="translate(1287.9766,530.9883)"
           id="g884"><path
             id="path886"
             style="fill:#395db4;fill-opacity:1;fill-rule:nonzero;stroke:none"
             d="m 0,0 c -18.205,-1.831 -24.51,-6.204 -24.51,-13.019 0,-5.796 4.983,-9.051 10.882,-9.051 5.797,0 10.679,3.661 13.628,7.22 z m 0.407,-18.409 c -2.847,-3.661 -8.543,-7.322 -14.544,-7.322 -8.238,0 -14.543,4.983 -14.543,12.306 0,8.645 7.119,15.052 28.68,16.476 v 4.271 c 0,7.119 -3.458,11.697 -11.391,11.697 -5.593,0 -12.001,-3.154 -15.662,-6.001 l -1.017,4.169 c 4.272,3.051 11.391,5.696 16.985,5.696 8.848,0 15.255,-4.272 15.255,-15.154 v -25.222 c 0,-2.848 0.712,-4.984 4.882,-4.882 l -0.305,-3.153 c -4.577,-0.203 -7.933,1.932 -8.238,7.119 z" /></g><g
           transform="translate(1324.5498,549.5996)"
           id="g888"><path
             id="path890"
             style="fill:#395db4;fill-opacity:1;fill-rule:nonzero;stroke:none"
             d="m 0,0 c -5.696,0 -10.781,-2.543 -14.239,-5.898 v -30.817 c 2.949,-2.237 8.136,-3.865 12.916,-3.865 10.476,0 17.799,8.238 17.799,21.257 C 16.476,-8.543 9.966,0 0,0 m -1.627,-44.343 c -4.679,0 -9.561,1.627 -12.714,3.56 l -4.068,-3.967 v 70.074 l 4.17,1.221 V -2.237 c 2.848,2.644 8.442,6 14.95,6 11.493,0 20.036,-8.95 20.036,-22.68 0,-15.357 -9.458,-25.426 -22.374,-25.426" /></g><g
           transform="translate(1367.0625,505.2568)"
           id="g892"><path
             id="path894"
             style="fill:#395db4;fill-opacity:1;fill-rule:nonzero;stroke:none"
             d="m 0,0 c -5.289,0 -10.476,1.627 -14.137,3.967 l 1.322,3.864 c 3.966,-2.542 8.34,-4.17 13.018,-4.17 5.899,0 11.797,3.153 11.797,9.052 0,6.713 -6.203,8.34 -12.407,10.475 -6.204,2.136 -13.12,5.085 -13.12,12.815 0,8.34 6.611,12.611 14.646,12.611 4.881,0 9.56,-1.525 13.221,-3.356 l -1.424,-3.763 c -3.865,2.136 -7.831,3.56 -12.205,3.56 -6.305,0 -10.475,-3.357 -10.475,-8.543 0,-6.103 6.102,-7.933 12.204,-9.967 C 8.848,24.409 15.764,21.663 15.764,13.12 15.764,4.983 8.645,0 0,0" /></g><g
           transform="translate(566.6924,566.5127)"
           id="g896"><path
             id="path898"
             style="fill:#395db4;fill-opacity:1;fill-rule:nonzero;stroke:none"
             d="m 0,0 c -4.442,0 -5.726,-1.975 -5.726,-6.318 v -7.207 H 6.121 L 4.936,-25.175 H -5.726 v -35.344 h -14.216 v 35.344 h -9.577 v 11.65 h 9.577 v 7.009 c 0,11.748 4.739,17.968 17.967,17.968 2.864,0 6.22,-0.198 8.293,-0.494 L 6.318,0 Z" /></g><g
           transform="translate(588.0146,527.8125)"
           id="g900"><path
             id="path902"
             style="fill:#395db4;fill-opacity:1;fill-rule:nonzero;stroke:none"
             d="m 0,0 c 0,-7.01 2.567,-11.649 9.182,-11.649 5.824,0 8.786,4.245 8.786,10.958 v 4.739 c 0,6.713 -2.962,10.958 -8.786,10.958 C 2.567,15.006 0,10.366 0,3.356 Z m -14.216,3.159 c 0,13.13 6.219,23.003 19.251,23.003 7.108,0 11.452,-3.652 13.525,-8.194 v 7.207 H 32.185 V -21.818 H 18.56 v 7.107 c -1.974,-4.54 -6.417,-8.095 -13.525,-8.095 -13.032,0 -19.251,9.872 -19.251,23.003 z" /></g><g
           transform="translate(649.812,553.9746)"
           id="g904"><path
             id="path906"
             style="fill:#395db4;fill-opacity:1;fill-rule:nonzero;stroke:none"
             d="m 0,0 c 5.528,0 10.761,-1.185 13.624,-3.159 l -3.159,-10.07 c -2.173,1.085 -5.726,2.171 -9.478,2.171 -7.7,0 -11.057,-4.442 -11.057,-12.044 v -2.764 c 0,-7.602 3.357,-12.044 11.057,-12.044 3.752,0 7.305,1.086 9.478,2.172 l 3.159,-10.071 C 10.761,-47.782 5.528,-48.968 0,-48.968 c -16.685,0 -24.287,8.984 -24.287,23.399 v 2.172 C -24.287,-8.984 -16.685,0 0,0" /></g><g
           transform="translate(679.5259,533.835)"
           id="g908"><path
             id="path910"
             style="fill:#395db4;fill-opacity:1;fill-rule:nonzero;stroke:none"
             d="m 0,0 h 17.178 v 1.185 c 0,5.133 -2.073,9.181 -8.293,9.181 C 2.468,10.366 0,6.318 0,0 m -14.217,-6.121 v 4.146 c 0,13.328 7.602,22.115 23.102,22.115 14.612,0 21.028,-8.885 21.028,-21.917 V -9.28 H 0 c 0.296,-6.418 3.159,-9.281 11.057,-9.281 5.331,0 10.958,1.086 15.105,2.863 l 2.567,-9.773 c -3.752,-1.975 -11.453,-3.455 -18.265,-3.455 -17.967,0 -24.681,8.984 -24.681,22.805" /></g><g
           transform="translate(747.9385,531.2676)"
           id="g912"><path
             id="path914"
             style="fill:#395db4;fill-opacity:1;fill-rule:nonzero;stroke:none"
             d="m 0,0 c 0,6.615 -2.567,11.551 -9.379,11.551 -5.825,0 -8.984,-4.147 -8.984,-10.86 v -4.936 c 0,-6.713 3.159,-10.859 8.984,-10.859 6.812,0 9.379,4.936 9.379,11.55 z m 14.216,-3.258 c 0,-13.131 -6.318,-23.003 -19.349,-23.003 -7.109,0 -12.045,3.555 -14.019,8.095 v -7.107 h -13.427 v 70.587 l 14.216,1.285 V 15.204 c 2.073,4.146 6.615,7.503 13.23,7.503 13.031,0 19.349,-9.873 19.349,-23.003 z" /></g><g
           transform="translate(799.4697,531.6621)"
           id="g916"><path
             id="path918"
             style="fill:#395db4;fill-opacity:1;fill-rule:nonzero;stroke:none"
             d="m 0,0 c 0,6.221 -2.568,11.156 -9.181,11.156 -6.615,0 -9.183,-4.935 -9.183,-11.156 v -4.344 c 0,-6.219 2.568,-11.155 9.183,-11.155 6.613,0 9.181,4.936 9.181,11.155 z m -32.579,-3.356 v 2.37 c 0,13.525 7.7,23.298 23.398,23.298 15.696,0 23.397,-9.773 23.397,-23.298 v -2.37 c 0,-13.525 -7.701,-23.299 -23.397,-23.299 -15.698,0 -23.398,9.774 -23.398,23.299" /></g><g
           transform="translate(851,531.6621)"
           id="g920"><path
             id="path922"
             style="fill:#395db4;fill-opacity:1;fill-rule:nonzero;stroke:none"
             d="m 0,0 c 0,6.221 -2.566,11.156 -9.181,11.156 -6.615,0 -9.181,-4.935 -9.181,-11.156 v -4.344 c 0,-6.219 2.566,-11.155 9.181,-11.155 6.615,0 9.181,4.936 9.181,11.155 z m -32.58,-3.356 v 2.37 c 0,13.525 7.702,23.298 23.399,23.298 15.696,0 23.397,-9.773 23.397,-23.298 v -2.37 c 0,-13.525 -7.701,-23.299 -23.397,-23.299 -15.697,0 -23.399,9.774 -23.399,23.299" /></g><g
           transform="translate(884.7593,530.5771)"
           id="g924"><path
             id="path926"
             style="fill:#395db4;fill-opacity:1;fill-rule:nonzero;stroke:none"
             d="M 0,0 14.02,22.41 H 29.125 L 14.414,-0.79 29.716,-24.583 H 14.612 L 0,-1.58 V -24.583 H -14.216 V 46.005 L 0,47.289 Z" /></g></g></g></g></svg>